<svg width="100" height="100" viewBox="0 0 100 100" fill="none" xmlns="http://www.w3.org/2000/svg">
<rect x="0.5" y="0.5" width="99" height="99" rx="11.5" fill="#FDA5A5"/>
<rect x="0.5" y="0.5" width="99" height="99" rx="11.5" stroke="#EB4B51"/>
<path d="M18.6846 10.5918C19.5596 10.6191 20.3252 10.6328 20.9814 10.6328C21.6377 10.6055 22.1709 10.5918 22.5811 10.5918H23.7705C24.0713 10.5645 24.4404 10.5508 24.8779 10.5508C25.2607 10.5508 25.7256 10.5508 26.2725 10.5508C26.8193 10.5508 27.4482 10.5645 28.1592 10.5918C28.3779 11.3574 28.624 12.1094 28.8975 12.8477C29.1982 13.5586 29.458 14.2012 29.6768 14.7754C29.9502 15.459 30.2236 16.1016 30.4971 16.7031C30.7705 17.3047 31.0986 18.0293 31.4814 18.877C31.8096 19.5879 32.2061 20.4629 32.6709 21.502C33.1357 22.5137 33.6826 23.6758 34.3115 24.9883C34.6123 24.1406 34.8857 23.3613 35.1318 22.6504C35.4053 21.9395 35.6377 21.3242 35.8291 20.8047C36.0479 20.2031 36.2256 19.6562 36.3623 19.1641C36.499 18.6719 36.6494 18.0703 36.8135 17.3594C36.9502 16.7578 37.1006 16.0332 37.2646 15.1855C37.4561 14.3379 37.6475 13.3535 37.8389 12.2324C38.6318 12.2324 39.3428 12.2324 39.9717 12.2324C40.6006 12.2324 41.1475 12.2187 41.6123 12.1914C42.1318 12.1914 42.5967 12.1777 43.0068 12.1504C43.4443 12.1504 44.0322 12.123 44.7705 12.0684C45.3994 12.0137 46.2334 11.9727 47.2725 11.9453C48.3389 11.8906 49.6514 11.8223 51.21 11.7402C50.6357 12.1504 50.1709 12.5605 49.8154 12.9707C49.4873 13.3535 49.2275 13.6953 49.0361 13.9961C48.8174 14.3516 48.6807 14.6934 48.626 15.0215C48.5713 15.2949 48.5166 15.9238 48.4619 16.9082C48.4346 17.8926 48.3936 19.0684 48.3389 20.4355C48.3115 21.7754 48.2842 23.2109 48.2568 24.7422C48.2568 26.2734 48.2705 27.7227 48.2979 29.0898C48.3252 30.457 48.3662 31.6465 48.4209 32.6582C48.5029 33.6426 48.6123 34.2715 48.749 34.5449C48.9404 34.873 49.2002 35.2559 49.5283 35.6934C49.8291 36.0762 50.2119 36.5137 50.6768 37.0059C51.1689 37.498 51.8115 38.0449 52.6045 38.6465C51.3467 38.7012 50.2939 38.7422 49.4463 38.7695C48.626 38.7969 47.9424 38.8242 47.3955 38.8516C46.7666 38.8789 46.2607 38.8926 45.8779 38.8926C45.4678 38.8926 44.9072 38.9062 44.1963 38.9336C43.5674 38.9609 42.7334 39.002 41.6943 39.0566C40.6553 39.084 39.3154 39.1387 37.6748 39.2207C38.0576 38.7832 38.4131 38.3457 38.7412 37.9082C39.0693 37.4707 39.3428 37.0742 39.5615 36.7188C39.835 36.3086 40.0674 35.9121 40.2588 35.5293C40.4502 35.0098 40.6006 34.0664 40.71 32.6992C40.8193 31.5234 40.9014 29.8418 40.9561 27.6543C41.0107 25.4395 41.0107 22.4727 40.9561 18.7539C40.4365 19.6016 39.9717 20.4492 39.5615 21.2969C39.1787 22.1172 38.8369 22.8691 38.5361 23.5527C38.208 24.3457 37.9072 25.1113 37.6338 25.8496C37.3604 26.6152 37.0732 27.4629 36.7725 28.3926C36.499 29.1855 36.1709 30.1289 35.7881 31.2227C35.4326 32.3164 35.0225 33.5195 34.5576 34.832L32.999 34.9141C32.7803 33.8203 32.5615 32.8359 32.3428 31.9609C32.124 31.0586 31.9053 30.293 31.6865 29.6641C31.4404 28.9258 31.1943 28.2695 30.9482 27.6953C30.6748 27.1211 30.374 26.4785 30.0459 25.7676C29.7451 25.166 29.376 24.4551 28.9385 23.6348C28.5283 22.8145 28.0498 21.8984 27.5029 20.8867C27.2295 23.6758 27.0654 25.9453 27.0107 27.6953C26.9561 29.418 26.9561 30.7578 27.0107 31.7148C27.0654 32.8633 27.1475 33.6973 27.2568 34.2168C27.4209 34.6816 27.6807 35.2012 28.0361 35.7754C28.3369 36.2676 28.7471 36.8555 29.2666 37.5391C29.8135 38.1953 30.5107 38.9336 31.3584 39.7539C30.7568 39.7539 30.1279 39.7539 29.4717 39.7539C28.8154 39.7539 28.2139 39.7676 27.667 39.7949C27.0107 39.8223 26.3682 39.8359 25.7393 39.8359C25.083 39.8633 24.3174 39.9043 23.4424 39.959C22.6768 40.0137 21.7607 40.0684 20.6943 40.123C19.6279 40.1777 18.3975 40.2734 17.0029 40.4102C17.6045 40.0273 18.0967 39.6582 18.4795 39.3027C18.8623 38.9199 19.1631 38.5781 19.3818 38.2773C19.6553 37.9219 19.8604 37.5664 19.9971 37.2109C20.0791 36.9922 20.1475 36.5137 20.2021 35.7754C20.2842 35.0371 20.3525 34.1348 20.4072 33.0684C20.4893 32.002 20.5439 30.8125 20.5713 29.5C20.626 28.1875 20.667 26.8613 20.6943 25.5215C20.749 24.1543 20.79 22.8281 20.8174 21.543C20.8447 20.2305 20.8584 19.0547 20.8584 18.0156C20.8857 16.9492 20.8994 16.0605 20.8994 15.3496C20.8994 14.6387 20.8994 14.1875 20.8994 13.9961C20.8174 13.5859 20.6943 13.1758 20.5303 12.7656C20.3936 12.4102 20.1748 12.041 19.874 11.6582C19.5732 11.2754 19.1768 10.9199 18.6846 10.5918ZM66.5498 9.07422C68.0264 9.12891 69.5166 9.40234 71.0205 9.89453C72.5518 10.3594 73.96 11.125 75.2451 12.1914C76.5303 13.2305 77.624 14.584 78.5264 16.252C79.4287 17.8926 79.9893 19.9023 80.208 22.2812C80.3994 24.2227 80.1533 26.1504 79.4697 28.0645C78.8135 29.9512 77.8975 31.6875 76.7217 33.2734C75.5459 34.8594 74.1924 36.2129 72.6611 37.334C71.1299 38.4277 69.5986 39.1523 68.0674 39.5078C67.1377 39.7266 66.1123 39.7539 64.9912 39.5898C63.8975 39.3984 62.7764 39.0566 61.6279 38.5645C60.5068 38.0449 59.3994 37.3887 58.3057 36.5957C57.2393 35.8027 56.2686 34.9004 55.3936 33.8887C54.5186 32.8496 53.7803 31.7285 53.1787 30.5254C52.6045 29.3223 52.249 28.0645 52.1123 26.752C51.9756 25.6582 51.9619 24.4551 52.0713 23.1426C52.208 21.8027 52.4678 20.4766 52.8506 19.1641C53.2607 17.8242 53.8213 16.5391 54.5322 15.3086C55.2705 14.0508 56.2002 12.957 57.3213 12.0273C58.4424 11.0703 59.7549 10.332 61.2588 9.8125C62.79 9.26562 64.5537 9.01953 66.5498 9.07422ZM59.208 25.6855C58.8252 28.6113 59.0986 30.9629 60.0283 32.7402C60.9854 34.5176 62.4209 35.5977 64.335 35.9805C65.2646 36.1719 66.1533 35.9805 67.001 35.4062C67.876 34.8047 68.6689 33.9434 69.3799 32.8223C70.0908 31.7012 70.7061 30.3887 71.2256 28.8848C71.7451 27.3809 72.1279 25.8086 72.374 24.168C72.6201 22.5273 72.6338 21.0508 72.415 19.7383C72.2236 18.3984 71.8818 17.2637 71.3896 16.334C70.8975 15.377 70.2959 14.6387 69.585 14.1191C68.9014 13.5996 68.1904 13.3125 67.4521 13.2578C66.167 13.1758 65.0459 13.5176 64.0889 14.2832C63.1318 15.0215 62.3252 15.9922 61.6689 17.1953C61.0127 18.3984 60.4795 19.752 60.0693 21.2559C59.6865 22.7598 59.3994 24.2363 59.208 25.6855Z" fill="white"/>
<path d="M37.7158 58.0742C39.1924 58.1289 40.6826 58.4023 42.1865 58.8945C43.7178 59.3594 45.126 60.125 46.4111 61.1914C47.6963 62.2305 48.79 63.584 49.6924 65.252C50.5947 66.8926 51.1553 68.9023 51.374 71.2812C51.5654 73.2227 51.3193 75.1504 50.6357 77.0645C49.9795 78.9512 49.0635 80.6875 47.8877 82.2734C46.7119 83.8594 45.3584 85.2129 43.8271 86.334C42.2959 87.4277 40.7646 88.1523 39.2334 88.5078C38.3037 88.7266 37.2783 88.7539 36.1572 88.5898C35.0635 88.3984 33.9424 88.0566 32.7939 87.5645C31.6729 87.0449 30.5654 86.3887 29.4717 85.5957C28.4053 84.8027 27.4346 83.9004 26.5596 82.8887C25.6846 81.8496 24.9463 80.7285 24.3447 79.5254C23.7705 78.3223 23.415 77.0645 23.2783 75.752C23.1416 74.6582 23.1279 73.4551 23.2373 72.1426C23.374 70.8027 23.6338 69.4766 24.0166 68.1641C24.4268 66.8242 24.9873 65.5391 25.6982 64.3086C26.4365 63.0508 27.3662 61.957 28.4873 61.0273C29.6084 60.0703 30.9209 59.332 32.4248 58.8125C33.9561 58.2656 35.7197 58.0195 37.7158 58.0742ZM30.374 74.6855C29.9912 77.6113 30.2646 79.9629 31.1943 81.7402C32.1514 83.5176 33.5869 84.5977 35.501 84.9805C36.4307 85.1719 37.3193 84.9805 38.167 84.4062C39.042 83.8047 39.835 82.9434 40.5459 81.8223C41.2568 80.7012 41.8721 79.3887 42.3916 77.8848C42.9111 76.3809 43.2939 74.8086 43.54 73.168C43.7861 71.5273 43.7998 70.0508 43.5811 68.7383C43.3896 67.3984 43.0479 66.2637 42.5557 65.334C42.0635 64.377 41.4619 63.6387 40.751 63.1191C40.0674 62.5996 39.3564 62.3125 38.6182 62.2578C37.333 62.1758 36.2119 62.5176 35.2549 63.2832C34.2979 64.0215 33.4912 64.9922 32.835 66.1953C32.1787 67.3984 31.6455 68.752 31.2354 70.2559C30.8525 71.7598 30.5654 73.2363 30.374 74.6855ZM50.5947 59.7559C51.5518 59.8926 52.3857 60.002 53.0967 60.084C53.8076 60.166 54.3955 60.2344 54.8604 60.2891C55.4072 60.3438 55.8721 60.3848 56.2549 60.4121C56.6924 60.4668 57.2256 60.4395 57.8545 60.3301C58.5107 60.2207 59.208 60.1113 59.9463 60.002C60.6846 59.8652 61.4502 59.7559 62.2432 59.6738C63.0361 59.5918 63.8018 59.5918 64.54 59.6738C65.0322 59.7285 65.6611 59.8379 66.4268 60.002C67.1924 60.166 67.999 60.4258 68.8467 60.7812C69.7217 61.1367 70.5967 61.6016 71.4717 62.1758C72.3467 62.75 73.1396 63.4746 73.8506 64.3496C74.5615 65.2246 75.1494 66.2637 75.6143 67.4668C76.0791 68.6699 76.3389 70.0781 76.3936 71.6914C76.4756 74.0977 76.2568 76.2852 75.7373 78.2539C75.2178 80.2227 74.4111 81.9043 73.3174 83.2988C72.251 84.6934 70.8975 85.7871 69.2568 86.5801C67.6162 87.373 65.7021 87.8105 63.5146 87.8926C61.8467 88.0293 60.2061 88.1523 58.5928 88.2617C57.9092 88.3164 57.1846 88.3574 56.4189 88.3848C55.6807 88.4121 54.9424 88.4395 54.2041 88.4668C53.4658 88.4668 52.7549 88.4531 52.0713 88.4258C51.3877 88.3984 50.7588 88.3574 50.1846 88.3027C50.8135 88.002 51.3193 87.7012 51.7021 87.4004C52.1123 87.0996 52.4268 86.8398 52.6455 86.6211C52.8916 86.3477 53.0693 86.1016 53.1787 85.8828C53.2334 85.582 53.3154 84.9941 53.4248 84.1191C53.5068 83.3809 53.6162 82.3281 53.7529 80.9609C53.8896 79.5938 54.0537 77.7344 54.2451 75.3828L54.4912 72.4707C54.6279 70.666 54.6826 69.1895 54.6553 68.041C54.6553 66.8926 54.6279 65.9902 54.5732 65.334C54.4912 64.5684 54.3818 64.0078 54.2451 63.6523C54.1357 63.3516 53.9307 62.9961 53.6299 62.5859C53.3564 62.2578 52.9736 61.8613 52.4814 61.3965C52.0166 60.9043 51.3877 60.3574 50.5947 59.7559ZM59.249 74.8496C59.3037 77.2832 59.4268 79.1562 59.6182 80.4688C59.8369 81.7539 60.0693 82.7109 60.3154 83.3398C60.6162 84.0508 60.9443 84.4746 61.2998 84.6113C61.8193 84.6113 62.4072 84.3926 63.0635 83.9551C63.7197 83.4902 64.3623 82.793 64.9912 81.8633C65.6475 80.9336 66.2354 79.7715 66.7549 78.377C67.3018 76.9824 67.6982 75.3555 67.9443 73.4961C68.1904 71.6367 68.1221 69.9961 67.7393 68.5742C67.3564 67.1523 66.8506 65.9629 66.2217 65.0059C65.5928 64.0215 64.9502 63.2832 64.2939 62.791C63.6377 62.2715 63.1455 62.0117 62.8174 62.0117C62.4346 62.0117 62.0928 62.1211 61.792 62.3398C61.4912 62.5312 61.0674 62.9824 60.5205 63.6934C60.2471 64.0762 60.001 64.623 59.7822 65.334C59.5908 65.9629 59.4268 66.7969 59.29 67.8359C59.1533 68.875 59.1123 70.2148 59.167 71.8555L59.249 74.8496Z" fill="white"/>
</svg>
